<svg width="279" height="64" viewBox="0 0 279 64" fill="none" xmlns="http://www.w3.org/2000/svg">
<path d="M119.144 7.60156V18.8656H107.112V52.9136H92.904V18.8656H81V7.60156H119.144Z" fill="#EBEBEB"/>
<path d="M143.99 53.3616C140.363 53.3616 137.099 52.6149 134.198 51.1216C131.296 49.6282 129.014 47.4949 127.35 44.7216C125.728 41.9056 124.917 38.6202 124.917 34.8656C124.917 31.1109 125.728 27.8469 127.35 25.0736C129.014 22.2576 131.296 20.1029 134.198 18.6096C137.099 17.1162 140.363 16.3696 143.99 16.3696C147.616 16.3696 150.88 17.1162 153.782 18.6096C156.683 20.1029 158.944 22.2576 160.565 25.0736C162.229 27.8469 163.062 31.1109 163.062 34.8656C163.062 38.6202 162.229 41.9056 160.565 44.7216C158.944 47.4949 156.683 49.6282 153.782 51.1216C150.88 52.6149 147.616 53.3616 143.99 53.3616ZM143.99 41.0736C145.312 41.0736 146.421 40.5616 147.317 39.5376C148.213 38.4709 148.661 36.9136 148.661 34.8656C148.661 32.8176 148.213 31.2816 147.317 30.2576C146.421 29.1909 145.312 28.6576 143.99 28.6576C142.667 28.6576 141.557 29.1909 140.661 30.2576C139.765 31.2816 139.318 32.8176 139.318 34.8656C139.318 36.9136 139.744 38.4709 140.598 39.5376C141.494 40.5616 142.624 41.0736 143.99 41.0736Z" fill="#EBEBEB"/>
<path d="M190.245 7.60156C194.981 7.60156 199.12 8.56156 202.661 10.4816C206.245 12.4016 208.997 15.0682 210.917 18.4816C212.837 21.8949 213.797 25.7776 213.797 30.1296C213.797 34.4389 212.837 38.3216 210.917 41.7776C208.997 45.2336 206.245 47.9642 202.661 49.9696C199.12 51.9322 194.981 52.9136 190.245 52.9136H171.365V7.60156H190.245ZM188.965 40.2416C192.165 40.2416 194.704 39.3669 196.581 37.6176C198.458 35.8682 199.397 33.3722 199.397 30.1296C199.397 26.8869 198.458 24.3909 196.581 22.6416C194.704 20.8922 192.165 20.0176 188.965 20.0176H185.573V40.2416H188.965Z" fill="#EBEBEB"/>
<path d="M239.92 53.3616C236.293 53.3616 233.029 52.6149 230.128 51.1216C227.226 49.6282 224.944 47.4949 223.28 44.7216C221.658 41.9056 220.848 38.6202 220.848 34.8656C220.848 31.1109 221.658 27.8469 223.28 25.0736C224.944 22.2576 227.226 20.1029 230.128 18.6096C233.029 17.1162 236.293 16.3696 239.92 16.3696C243.546 16.3696 246.81 17.1162 249.712 18.6096C252.613 20.1029 254.874 22.2576 256.495 25.0736C258.16 27.8469 258.992 31.1109 258.992 34.8656C258.992 38.6202 258.16 41.9056 256.495 44.7216C254.874 47.4949 252.613 49.6282 249.712 51.1216C246.81 52.6149 243.546 53.3616 239.92 53.3616ZM239.92 41.0736C241.242 41.0736 242.351 40.5616 243.247 39.5376C244.143 38.4709 244.592 36.9136 244.592 34.8656C244.592 32.8176 244.143 31.2816 243.247 30.2576C242.351 29.1909 241.242 28.6576 239.92 28.6576C238.597 28.6576 237.488 29.1909 236.592 30.2576C235.696 31.2816 235.247 32.8176 235.247 34.8656C235.247 36.9136 235.674 38.4709 236.528 39.5376C237.424 40.5616 238.554 41.0736 239.92 41.0736Z" fill="#EBEBEB"/>
<path d="M61 32.6016H279V37.6016H61V32.6016Z" fill="#F88282"/>
<path d="M43.4727 3.94531H0L2.86084 63.1498H46.3335L43.4727 3.94531Z" fill="#407BFF"/>
<path opacity="0.2" d="M43.4727 3.94531H0L2.86084 63.1498H46.3335L43.4727 3.94531Z" fill="black"/>
<path d="M43.875 3.94531H0.402344L3.26507 63.1498H46.7378L43.875 3.94531Z" fill="#407BFF"/>
<path opacity="0.2" d="M41.5766 5.93945H2.38672L5.12498 60.4765L39.2024 60.4312L44.8656 55.4111L41.5766 5.93945Z" fill="black"/>
<path d="M41.8765 5.9375C42.2944 22.2702 43.6134 38.5674 45.8274 54.7547C42.722 56.892 39.6323 59.0293 36.5584 61.1666H7.24845C4.48198 42.8758 2.85826 24.4303 2.38672 5.9375H41.8765Z" fill="white"/>
<path d="M45.8315 54.7522C42.7261 56.8895 39.6364 59.0268 36.5625 61.1641C37.2339 58.3353 37.9335 55.5065 38.6615 52.6777L45.8315 54.7522Z" fill="#EBEBEB"/>
<path d="M13.0129 10.9267C13.0871 12.9232 13.1739 14.9209 13.2732 16.9199H7.28183C7.18125 14.9209 7.0945 12.9232 7.02158 10.9267H13.0129ZM13.624 10.2949H6.36719C6.45142 12.7126 6.5564 15.1315 6.68212 17.5517H13.9408C13.8151 15.1328 13.7101 12.7138 13.6258 10.2949H13.624Z" fill="#407BFF"/>
<path d="M37.4965 13.1763H16.9747C16.9558 12.7256 16.9388 12.273 16.9219 11.8223H37.4418C37.4588 12.273 37.4777 12.7256 37.4965 13.1763Z" fill="#E0E0E0"/>
<path d="M33.1612 16.022H17.1013C17.0806 15.5694 17.0579 15.1187 17.0391 14.668H33.0971C33.1185 15.1193 33.1398 15.5707 33.1612 16.022Z" fill="#E0E0E0"/>
<path d="M13.606 22.663C13.7317 24.662 13.8719 26.661 14.0266 28.66H8.03332C7.87868 26.661 7.73849 24.662 7.61277 22.663H13.606ZM14.1982 22.0312H6.94141C7.08976 24.4514 7.25886 26.8716 7.4487 29.2918H14.7149C14.5263 26.8729 14.3566 24.4527 14.2057 22.0312H14.1982Z" fill="#407BFF"/>
<path d="M25.1613 24.9145H17.6179C17.5877 24.4619 17.5556 24.0112 17.5273 23.5586H25.0708C25.099 24.0112 25.1292 24.4619 25.1613 24.9145Z" fill="#E0E0E0"/>
<path d="M32.3048 24.9145H26.7585C26.7283 24.4619 26.6963 24.0112 26.668 23.5586H32.2143C32.2426 24.0112 32.2727 24.4619 32.3048 24.9145Z" fill="#E0E0E0"/>
<path d="M35.7816 27.7661H17.8226C17.7887 27.3135 17.7566 26.8628 17.7227 26.4102H35.6816C35.7156 26.8628 35.7476 27.3135 35.7816 27.7661Z" fill="#E0E0E0"/>
<path d="M14.5058 34.4072C14.6856 36.4062 14.8792 38.4052 15.0866 40.4042H9.0934C8.88595 38.4052 8.69234 36.4062 8.51256 34.4072H14.5058ZM15.0829 33.7754H7.82422C8.03795 36.1968 8.27179 38.6176 8.52576 41.0378H15.7844C15.533 38.6164 15.2991 36.1956 15.0829 33.7754Z" fill="#407BFF"/>
<path d="M39.2464 38.1562H18.7227L18.8584 39.5103H39.3822L39.2464 38.1562Z" fill="#E0E0E0"/>
<path d="M34.5131 35.3066H18.4531C18.4946 35.7574 18.5361 36.21 18.5795 36.6607H34.6375C34.596 36.21 34.5527 35.763 34.5131 35.3066Z" fill="#E0E0E0"/>
<path d="M15.7181 46.1513C15.9519 48.1503 16.199 50.1487 16.4592 52.1464H10.466C10.2057 50.1499 9.95868 48.1516 9.72484 46.1513H15.7181ZM16.2838 45.5195H9.01953C9.29612 47.941 9.59472 50.3605 9.91531 52.7782H17.1664C16.8483 50.3605 16.5497 47.941 16.2706 45.5195H16.2838Z" fill="#407BFF"/>
<path d="M40.3773 48.3969H19.8536C19.7989 47.9443 19.7442 47.4936 19.6914 47.041H40.2133C40.268 47.4993 40.3208 47.95 40.3773 48.3969Z" fill="#E0E0E0"/>
<path d="M29.5571 51.2505H20.2146C20.1561 50.7998 20.0995 50.3472 20.043 49.8965H29.3855C29.4421 50.3472 29.4986 50.7998 29.5571 51.2505Z" fill="#E0E0E0"/>
<path d="M35.1312 51.2505H31.0974C31.0389 50.7998 30.9824 50.3472 30.9258 49.8965H34.9596C35.0162 50.3472 35.0803 50.7998 35.1312 51.2505Z" fill="#E0E0E0"/>
<path d="M10.3778 16.0645L10.1119 15.642C9.53105 14.718 8.34673 13.8938 7.9375 13.6525L8.24301 13.1112C9.04587 13.5988 9.76324 14.2148 10.3665 14.9348C11.2792 13.6921 12.6295 12.4078 14.4776 11.0273L14.868 11.5365C12.8954 13.0131 11.515 14.3653 10.6437 15.6665L10.3778 16.0645Z" fill="#407BFF"/>
<path d="M11.0924 27.8026L10.8152 27.3802C10.2117 26.4561 9.00473 25.6301 8.58984 25.3887L8.87838 24.8475C9.69656 25.3352 10.4308 25.9516 11.0528 26.673C11.9316 25.4283 13.246 24.144 15.0583 22.7617C15.1922 22.9314 15.328 23.1012 15.4619 23.2728C13.5289 24.7513 12.1843 26.1016 11.3488 27.4047C11.2621 27.5367 11.1772 27.6706 11.0924 27.8026Z" fill="#407BFF"/>
<path d="M12.1349 39.578L11.8464 39.1556C11.2165 38.2315 9.98695 37.4055 9.56641 37.166C9.65693 36.9774 9.75499 36.8039 9.84174 36.6247C10.6727 37.1133 11.4222 37.7285 12.0633 38.4484C12.91 37.2037 14.1905 35.9213 15.9632 34.5371L16.3819 35.0482C14.496 36.5267 13.1759 37.877 12.3782 39.1801L12.1349 39.578Z" fill="#407BFF"/>
<path d="M31.1407 57.9133C30.028 57.9133 29.3868 57.5022 28.8211 57.1401C28.2553 56.7781 27.7688 56.465 26.8296 56.465C25.8905 56.465 25.4718 56.7931 25.0286 57.1401C24.5854 57.4871 24.0423 57.9133 22.9297 57.9133C21.817 57.9133 21.1758 57.5022 20.612 57.1401C20.0481 56.7781 19.5615 56.465 18.6205 56.465C17.6795 56.465 17.2627 56.7931 16.8195 57.1401C16.3763 57.4871 15.8332 57.9133 14.7224 57.9133C13.6117 57.9133 12.9686 57.5022 12.4028 57.1401C11.8371 56.7781 11.3524 56.465 10.4114 56.465C10.3869 56.2764 10.3605 56.1029 10.3359 55.9219C11.4486 55.9219 12.0879 56.333 12.6537 56.6951C13.2194 57.0572 13.7041 57.3702 14.6432 57.3702C15.5824 57.3702 16.001 57.0421 16.4442 56.6951C16.8874 56.3481 17.4324 55.9219 18.5451 55.9219C19.6577 55.9219 20.2951 56.333 20.8609 56.6951C21.4266 57.0572 21.9132 57.3702 22.8523 57.3702C23.7915 57.3702 24.2102 57.0421 24.6533 56.6951C25.0965 56.3481 25.6415 55.9219 26.7542 55.9219C27.8668 55.9219 28.5061 56.333 29.0719 56.6951C29.6377 57.0572 30.1223 57.3702 31.0634 57.3702C31.0879 57.5513 31.1162 57.7323 31.1407 57.9133Z" fill="#EBEBEB"/>
<path d="M32.742 5.41254C32.1046 3.71527 30.6317 2.60073 29.0476 2.60073H25.819C25.5787 2.59863 25.3442 2.52604 25.1448 2.39194C24.9453 2.25785 24.7896 2.06816 24.6969 1.84639C24.4687 1.30435 24.087 0.84083 23.5989 0.512819C23.1107 0.184809 22.5373 0.00661114 21.9492 0.000137477C21.3803 -0.00563188 20.8244 0.170323 20.3625 0.50239C19.9005 0.834457 19.5565 1.3053 19.3807 1.84639C19.3091 2.06778 19.1685 2.26043 18.9795 2.39616C18.7904 2.53189 18.563 2.60358 18.3303 2.60073H15.1036C13.5176 2.60073 12.1522 3.72093 11.6808 5.41254L11.4922 6.08579H32.9909L32.742 5.41254Z" fill="#263238"/>
<path d="M32.8561 6.7496H11.6968C11.5183 6.74752 11.3473 6.67787 11.2182 6.55469C11.089 6.4315 11.0114 6.26394 11.0009 6.08578C10.9963 6.00018 11.0092 5.91454 11.0389 5.83413C11.0687 5.75372 11.1145 5.68025 11.1737 5.61824C11.2329 5.55623 11.3041 5.50699 11.3831 5.47355C11.462 5.44012 11.547 5.42321 11.6327 5.42385H32.792C32.9701 5.42589 33.1409 5.49528 33.27 5.61807C33.3991 5.74086 33.4769 5.90796 33.4878 6.08578C33.4927 6.17153 33.48 6.25738 33.4504 6.33801C33.4208 6.41864 33.375 6.49235 33.3158 6.55457C33.2566 6.61678 33.1852 6.66619 33.1061 6.69974C33.0271 6.73329 32.942 6.75026 32.8561 6.7496Z" fill="#407BFF"/>
<path opacity="0.2" d="M32.8561 6.7496H11.6968C11.5183 6.74752 11.3473 6.67787 11.2182 6.55469C11.089 6.4315 11.0114 6.26394 11.0009 6.08578C10.9963 6.00018 11.0092 5.91454 11.0389 5.83413C11.0687 5.75372 11.1145 5.68025 11.1737 5.61824C11.2329 5.55623 11.3041 5.50699 11.3831 5.47355C11.462 5.44012 11.547 5.42321 11.6327 5.42385H32.792C32.9701 5.42589 33.1409 5.49528 33.27 5.61807C33.3991 5.74086 33.4769 5.90796 33.4878 6.08578C33.4927 6.17153 33.48 6.25738 33.4504 6.33801C33.4208 6.41864 33.375 6.49235 33.3158 6.55457C33.2566 6.61678 33.1852 6.66619 33.1061 6.69974C33.0271 6.73329 32.942 6.75026 32.8561 6.7496Z" fill="black"/>
</svg>
