<svg width="218" height="46" viewBox="0 0 218 46" fill="none" xmlns="http://www.w3.org/2000/svg">
<path d="M58.144 0V11.264H46.112V45.312H31.904V11.264H20V0H58.144Z" fill="#EBEBEB"/>
<path d="M82.9895 45.76C79.3628 45.76 76.0988 45.0133 73.1975 43.52C70.2962 42.0267 68.0135 39.8933 66.3495 37.12C64.7282 34.304 63.9175 31.0187 63.9175 27.264C63.9175 23.5093 64.7282 20.2453 66.3495 17.472C68.0135 14.656 70.2962 12.5013 73.1975 11.008C76.0988 9.51467 79.3628 8.768 82.9895 8.768C86.6162 8.768 89.8802 9.51467 92.7815 11.008C95.6828 12.5013 97.9442 14.656 99.5655 17.472C101.229 20.2453 102.062 23.5093 102.062 27.264C102.062 31.0187 101.229 34.304 99.5655 37.12C97.9442 39.8933 95.6828 42.0267 92.7815 43.52C89.8802 45.0133 86.6162 45.76 82.9895 45.76ZM82.9895 33.472C84.3122 33.472 85.4215 32.96 86.3175 31.936C87.2135 30.8693 87.6615 29.312 87.6615 27.264C87.6615 25.216 87.2135 23.68 86.3175 22.656C85.4215 21.5893 84.3122 21.056 82.9895 21.056C81.6668 21.056 80.5575 21.5893 79.6615 22.656C78.7655 23.68 78.3175 25.216 78.3175 27.264C78.3175 29.312 78.7442 30.8693 79.5975 31.936C80.4935 32.96 81.6242 33.472 82.9895 33.472Z" fill="#EBEBEB"/>
<path d="M129.245 0C133.981 0 138.12 0.959999 141.661 2.88C145.245 4.8 147.997 7.46666 149.917 10.88C151.837 14.2933 152.797 18.176 152.797 22.528C152.797 26.8373 151.837 30.72 149.917 34.176C147.997 37.632 145.245 40.3627 141.661 42.368C138.12 44.3307 133.981 45.312 129.245 45.312H110.365V0H129.245ZM127.965 32.64C131.165 32.64 133.704 31.7653 135.581 30.016C137.458 28.2667 138.397 25.7707 138.397 22.528C138.397 19.2853 137.458 16.7893 135.581 15.04C133.704 13.2907 131.165 12.416 127.965 12.416H124.573V32.64H127.965Z" fill="#EBEBEB"/>
<path d="M178.92 45.76C175.293 45.76 172.029 45.0133 169.128 43.52C166.226 42.0267 163.944 39.8933 162.28 37.12C160.658 34.304 159.848 31.0187 159.848 27.264C159.848 23.5093 160.658 20.2453 162.28 17.472C163.944 14.656 166.226 12.5013 169.128 11.008C172.029 9.51467 175.293 8.768 178.92 8.768C182.546 8.768 185.81 9.51467 188.712 11.008C191.613 12.5013 193.874 14.656 195.495 17.472C197.16 20.2453 197.992 23.5093 197.992 27.264C197.992 31.0187 197.16 34.304 195.495 37.12C193.874 39.8933 191.613 42.0267 188.712 43.52C185.81 45.0133 182.546 45.76 178.92 45.76ZM178.92 33.472C180.242 33.472 181.351 32.96 182.247 31.936C183.143 30.8693 183.592 29.312 183.592 27.264C183.592 25.216 183.143 23.68 182.247 22.656C181.351 21.5893 180.242 21.056 178.92 21.056C177.597 21.056 176.488 21.5893 175.592 22.656C174.696 23.68 174.247 25.216 174.247 27.264C174.247 29.312 174.674 30.8693 175.528 31.936C176.424 32.96 177.554 33.472 178.92 33.472Z" fill="#EBEBEB"/>
<path d="M0 25H218V30H0V25Z" fill="#F88282"/>
</svg>
